<svg width="40" height="40" viewBox="0 0 40 40" fill="none" xmlns="http://www.w3.org/2000/svg">
<path fill-rule="evenodd" clip-rule="evenodd" d="M20 40C31.0457 40 40 31.0457 40 20C40 8.95431 31.0457 0 20 0C8.95431 0 0 8.95431 0 20C0 31.0457 8.95431 40 20 40Z" fill="black"/>
<path d="M16.3272 30.9092C18.3144 30.9092 19.9272 29.2801 19.9272 27.2728V23.6365H16.3272C14.34 23.6365 12.7272 25.2656 12.7272 27.2728C12.7272 29.2801 14.34 30.9092 16.3272 30.9092Z" fill="#0ACF83"/>
<path d="M12.7272 19.9999C12.7272 17.9926 14.34 16.3635 16.3272 16.3635H19.9272V23.6363H16.3272C14.34 23.6363 12.7272 22.0072 12.7272 19.9999Z" fill="#A259FF"/>
<path d="M12.7272 12.7276C12.7272 10.7203 14.34 9.09119 16.3272 9.09119H19.9272V16.3639H16.3272C14.34 16.3639 12.7272 14.7348 12.7272 12.7276Z" fill="#F24E1E"/>
<path d="M19.9274 9.09119H23.5274C25.5146 9.09119 27.1274 10.7203 27.1274 12.7276C27.1274 14.7348 25.5146 16.3639 23.5274 16.3639H19.9274V9.09119Z" fill="#FF7262"/>
<path d="M27.1274 19.9999C27.1274 22.0072 25.5146 23.6363 23.5274 23.6363C21.5402 23.6363 19.9274 22.0072 19.9274 19.9999C19.9274 17.9926 21.5402 16.3635 23.5274 16.3635C25.5146 16.3635 27.1274 17.9926 27.1274 19.9999Z" fill="#1ABCFE"/>
</svg>
