<svg width="60" height="50" viewBox="0 0 60 50" fill="none" xmlns="http://www.w3.org/2000/svg">
<path d="M42.1999 5.99994C41.9096 5.75742 41.5648 5.56501 41.1851 5.43372C40.8055 5.30244 40.3985 5.23486 39.9874 5.23486C39.5764 5.23486 39.1694 5.30244 38.7897 5.43372C38.41 5.56501 38.0652 5.75742 37.7749 5.99994L16.7499 23.5208C16.5181 23.7135 16.3343 23.9424 16.2088 24.1945C16.0834 24.4465 16.0188 24.7167 16.0188 24.9895C16.0188 25.2624 16.0834 25.5325 16.2088 25.7846C16.3343 26.0366 16.5181 26.2655 16.7499 26.4583L37.7749 43.9791C38.9999 44.9999 40.9749 44.9999 42.1999 43.9791C43.4249 42.9583 43.4249 41.3124 42.1999 40.2916L23.8499 24.9999L42.2249 9.68743C43.4249 8.6666 43.4249 7.02077 42.1999 5.99994Z" fill="white"/>
</svg>
