<svg width="60" height="50" viewBox="0 0 60 50" fill="none" xmlns="http://www.w3.org/2000/svg">
<path d="M18.45 43.771C19.675 44.7918 21.65 44.7918 22.875 43.771L43.65 26.4585C43.8817 26.2658 44.0656 26.0368 44.1911 25.7848C44.3165 25.5328 44.3811 25.2626 44.3811 24.9897C44.3811 24.7169 44.3165 24.4467 44.1911 24.1947C44.0656 23.9427 43.8817 23.7137 43.65 23.521L22.875 6.2085C21.65 5.18766 19.675 5.18766 18.45 6.2085C17.225 7.22933 17.225 8.87516 18.45 9.896L36.55 25.0002L18.425 40.1043C17.225 41.1043 17.225 42.771 18.45 43.771Z" fill="white"/>
</svg>
