<svg width="74" height="40" viewBox="0 0 74 40" fill="none" xmlns="http://www.w3.org/2000/svg">
<path d="M5.18701 18.979V19.5771H3.49512V24H2.80469V19.5771H1.11279V18.979H5.18701ZM6.57744 18.979H10.2381V19.5942H7.24053V21.1187H10.0125V21.6997H7.24053V23.4019H10.2894V24H6.57744V18.979ZM13.9972 18.8423C14.6329 18.8423 15.1262 19.0098 15.4771 19.3447C15.8281 19.6797 16.0229 20.0602 16.0616 20.4863H15.3985C15.3233 20.1628 15.1729 19.9064 14.9474 19.7173C14.7241 19.5282 14.4096 19.4336 14.004 19.4336C13.5095 19.4336 13.1096 19.6079 12.8043 19.9565C12.5012 20.3029 12.3497 20.835 12.3497 21.5527C12.3497 22.1406 12.4864 22.618 12.7599 22.9849C13.0356 23.3494 13.4457 23.5317 13.9903 23.5317C14.4916 23.5317 14.8733 23.3392 15.1354 22.9541C15.2743 22.7513 15.378 22.4847 15.4464 22.1543H16.1095C16.0502 22.6829 15.8543 23.1261 15.5216 23.4839C15.1228 23.9146 14.5851 24.1299 13.9083 24.1299C13.325 24.1299 12.8351 23.9533 12.4386 23.6001C11.9168 23.133 11.6559 22.4118 11.6559 21.4365C11.6559 20.696 11.8518 20.0887 12.2437 19.6147C12.6676 19.0998 13.2521 18.8423 13.9972 18.8423ZM17.6571 18.979H18.3441V21.0537H20.9555V18.979H21.6425V24H20.9555V21.6519H18.3441V24H17.6571V18.979ZM23.3986 18.979H24.2019L26.738 23.0464V18.979H27.384V24H26.6218L24.048 19.936V24H23.3986V18.979ZM31.3242 18.8423C32.2106 18.8423 32.8669 19.1271 33.293 19.6968C33.6257 20.1411 33.792 20.7096 33.792 21.4023C33.792 22.152 33.6017 22.7752 33.2212 23.272C32.7746 23.8553 32.1377 24.147 31.3105 24.147C30.5381 24.147 29.9308 23.8918 29.4888 23.3813C29.0946 22.8892 28.8975 22.2671 28.8975 21.5151C28.8975 20.8361 29.0661 20.255 29.4033 19.772C29.8363 19.1522 30.4766 18.8423 31.3242 18.8423ZM31.3926 23.5386C31.9919 23.5386 32.4248 23.3244 32.6914 22.896C32.9603 22.4653 33.0947 21.9709 33.0947 21.4126C33.0947 20.8224 32.9398 20.3473 32.6299 19.9873C32.3223 19.6273 31.9007 19.4473 31.3652 19.4473C30.8457 19.4473 30.4219 19.6261 30.0938 19.9839C29.7656 20.3394 29.6016 20.8646 29.6016 21.5596C29.6016 22.1156 29.7417 22.585 30.022 22.9678C30.3045 23.3483 30.7614 23.5386 31.3926 23.5386Z" fill="#F2F6FF" fill-opacity="0.9"/>
<path d="M41.5503 18.979H42.2373V21.0537H44.8486V18.979H45.5356V24H44.8486V21.6519H42.2373V24H41.5503V18.979ZM49.4588 18.8423C50.3452 18.8423 51.0014 19.1271 51.4275 19.6968C51.7602 20.1411 51.9266 20.7096 51.9266 21.4023C51.9266 22.152 51.7363 22.7752 51.3558 23.272C50.9091 23.8553 50.2723 24.147 49.4451 24.147C48.6727 24.147 48.0654 23.8918 47.6233 23.3813C47.2291 22.8892 47.032 22.2671 47.032 21.5151C47.032 20.8361 47.2007 20.255 47.5379 19.772C47.9708 19.1522 48.6111 18.8423 49.4588 18.8423ZM49.5271 23.5386C50.1264 23.5386 50.5594 23.3244 50.826 22.896C51.0949 22.4653 51.2293 21.9709 51.2293 21.4126C51.2293 20.8224 51.0743 20.3473 50.7645 19.9873C50.4568 19.6273 50.0353 19.4473 49.4998 19.4473C48.9803 19.4473 48.5564 19.6261 48.2283 19.9839C47.9002 20.3394 47.7361 20.8646 47.7361 21.5596C47.7361 22.1156 47.8763 22.585 48.1565 22.9678C48.4391 23.3483 48.896 23.5386 49.5271 23.5386ZM54.1783 18.979V22.0825C54.1783 22.4471 54.2467 22.7502 54.3834 22.9917C54.5862 23.3563 54.928 23.5386 55.4088 23.5386C55.9853 23.5386 56.3772 23.3415 56.5846 22.9473C56.6962 22.7331 56.7521 22.4448 56.7521 22.0825V18.979H57.4425V21.7988C57.4425 22.4163 57.3593 22.8914 57.193 23.2241C56.8876 23.8302 56.3111 24.1333 55.4635 24.1333C54.6158 24.1333 54.0405 23.8302 53.7374 23.2241C53.5711 22.8914 53.4879 22.4163 53.4879 21.7988V18.979H54.1783ZM59.643 22.3799C59.6589 22.6647 59.7261 22.896 59.8446 23.0737C60.0702 23.4064 60.4678 23.5728 61.0375 23.5728C61.2927 23.5728 61.5251 23.5363 61.7348 23.4634C62.1404 23.3221 62.3432 23.0692 62.3432 22.7046C62.3432 22.4312 62.2577 22.2363 62.0868 22.1201C61.9136 22.0062 61.6425 21.9071 61.2733 21.8228L60.5932 21.6689C60.1488 21.5687 59.8344 21.4582 59.6498 21.3374C59.3308 21.1278 59.1713 20.8145 59.1713 20.3975C59.1713 19.9463 59.3274 19.576 59.6396 19.2866C59.9517 18.9972 60.3938 18.8525 60.9657 18.8525C61.4921 18.8525 61.9387 18.9801 62.3056 19.2354C62.6747 19.4883 62.8593 19.8939 62.8593 20.4521H62.2201C62.1859 20.1833 62.113 19.9771 62.0014 19.8335C61.794 19.5715 61.442 19.4404 60.9452 19.4404C60.5442 19.4404 60.2559 19.5247 60.0805 19.6934C59.905 19.862 59.8173 20.0579 59.8173 20.2812C59.8173 20.5273 59.9198 20.7074 60.1249 20.8213C60.2593 20.8942 60.5635 20.9854 61.0375 21.0947L61.7416 21.2554C62.0811 21.3328 62.3432 21.4388 62.5277 21.5732C62.8467 21.8079 63.0063 22.1486 63.0063 22.5952C63.0063 23.1512 62.8035 23.5488 62.3979 23.7881C61.9945 24.0273 61.5251 24.147 60.9896 24.147C60.3653 24.147 59.8765 23.9875 59.5233 23.6685C59.1702 23.3517 58.997 22.9222 59.0038 22.3799H59.643ZM64.6325 18.979H68.2932V19.5942H65.2956V21.1187H68.0676V21.6997H65.2956V23.4019H68.3444V24H64.6325V18.979Z" fill="#F2F6FF" fill-opacity="0.9"/>
<path d="M0.0127331 0.127829C-0.0256178 0.178963 0.0255167 1.12495 0.127786 2.21156C0.217271 3.36209 0.28119 5.80376 0.268406 8.02812L0.255622 11.8632H0.88202H1.49564L1.71296 10.1374C2.24987 5.91882 2.88905 4.11632 4.28247 2.91466C4.99835 2.30105 5.59918 1.99424 6.58352 1.76413C7.51673 1.54681 11.0961 1.27836 12.3106 1.34227L13.1415 1.38062L13.1799 8.37327L13.2054 15.3787H15.89H18.5746V8.34771V1.31671H19.6995C21.4509 1.31671 24.3144 1.5596 25.1581 1.77692C26.999 2.23713 28.2262 3.2726 28.9165 4.96004C29.364 6.03387 29.8242 8.1943 30.0926 10.5465L30.2588 11.9271H30.9364H31.6139L31.55 11.1857C31.3454 8.61616 31.3966 5.11345 31.6906 1.15052L31.7801 -7.62939e-06L30.9619 0.0894775C29.9776 0.204531 1.08656 0.204531 0.485728 0.0894775C0.255622 0.0511265 0.0383004 0.0639105 0.0127331 0.127829Z" fill="#F2F6FF" fill-opacity="0.9"/>
<path d="M35.922 0.115044C35.8708 0.166179 35.8325 0.421851 35.8325 0.690308C35.8325 1.25279 35.8453 1.25279 37.3026 1.36784C38.5682 1.47011 39.5014 1.95589 39.8849 2.72291C40.3451 3.61776 40.4218 4.83221 40.4346 10.2908V15.3787H43.0425H45.6631L45.7015 9.5238C45.7398 4.33364 45.7782 3.61776 45.9699 3.10641C46.4173 1.96867 47.1971 1.49568 48.8334 1.36784C50.1502 1.25279 50.3036 1.1633 50.2524 0.575254C50.2141 0.153395 50.1757 0.102261 49.8945 0.127828C48.9996 0.191746 36.5739 0.166179 36.3183 0.102261C36.1521 0.0639095 35.9731 0.0639095 35.922 0.115044Z" fill="#F2F6FF" fill-opacity="0.9"/>
<path d="M59.5333 0.153399C59.5078 0.178966 59.4822 0.421854 59.4822 0.69031C59.4822 1.22722 59.4566 1.21444 61.0674 1.38063C62.627 1.53403 63.4963 2.19878 63.8414 3.48993C63.9437 3.87344 64.0076 5.95717 64.046 9.71556L64.1099 15.3787H66.705H69.3128L69.364 9.5238C69.4023 3.22147 69.4279 3.05528 70.1054 2.28827C70.5528 1.76414 71.1792 1.49568 72.2019 1.38063C74.03 1.18887 73.9405 1.22722 73.9021 0.664743L73.8638 0.153399L66.7305 0.127831C62.8059 0.115047 59.5589 0.127831 59.5333 0.153399Z" fill="#F2F6FF" fill-opacity="0.9"/>
<path d="M13.2693 26.6539C13.2438 26.7434 13.1926 28.9166 13.1799 31.4861L13.1415 36.1521L12.7836 36.9191C12.1699 38.2359 11.2367 38.7088 8.89734 38.875L7.64454 38.9645L7.60619 39.4759L7.56784 39.9872H15.89H24.2121L24.1738 39.4759L24.1354 38.9645L22.8826 38.875C20.4026 38.6961 19.3032 38.0825 18.8047 36.5995C18.7024 36.3055 18.6257 34.5286 18.5873 31.3583L18.5106 26.5644L15.9156 26.526C13.9085 26.5005 13.3205 26.526 13.2693 26.6539Z" fill="#F2F6FF" fill-opacity="0.9"/>
<path d="M40.3962 31.3838C40.3579 34.7587 40.2939 36.4334 40.1917 36.7913C39.7698 38.1592 38.9261 38.7088 37.0213 38.875L35.8964 38.9645L35.858 39.4759L35.8197 39.9872H43.0552H50.278V39.5142C50.278 38.9773 50.2652 38.9645 48.8846 38.8495C47.1715 38.6961 46.3406 38.1847 45.9699 37.0725C45.7909 36.5101 45.7398 35.6663 45.6886 31.4861L45.6119 26.5644L43.0296 26.526L40.4601 26.5005L40.3962 31.3838Z" fill="#F2F6FF" fill-opacity="0.9"/>
<path d="M64.046 31.3199C64.0076 34.4647 63.9309 36.3694 63.8286 36.7657C63.6241 37.5839 62.8187 38.4404 62.0645 38.6449C61.7577 38.7216 61.0674 38.8239 60.5305 38.875L59.5461 38.9645L59.5078 39.4759L59.4694 40L66.705 39.9872H73.9405L73.9021 39.4759L73.8638 38.9645L72.8028 38.875C70.8596 38.7216 69.952 38.1847 69.5685 37.0214C69.4534 36.689 69.3895 34.976 69.3384 31.55L69.2617 26.5644L66.6794 26.526L64.1099 26.5005L64.046 31.3199Z" fill="#F2F6FF" fill-opacity="0.9"/>
</svg>
