<?xml version="1.0" standalone="no"?>
<svg xmlns:xlink="http://www.w3.org/1999/xlink" id="wave" style="transform:rotate(0deg); transition: 0.3s" viewBox="0 0 1440 470" version="1.1" xmlns="http://www.w3.org/2000/svg"><defs><linearGradient id="sw-gradient-0" x1="0" x2="0" y1="1" y2="0"><stop stop-color="rgba(150.674, 33.547, 237.141, 1)" offset="0%"/><stop stop-color="rgba(255, 255, 255, 0)" offset="100%"/></linearGradient></defs><path style="transform:translate(0, 0px); opacity:1" fill="url(#sw-gradient-0)" d="M0,376L80,313.3C160,251,320,125,480,78.3C640,31,800,63,960,101.8C1120,141,1280,188,1440,211.5C1600,235,1760,235,1920,266.3C2080,298,2240,360,2400,391.7C2560,423,2720,423,2880,368.2C3040,313,3200,204,3360,203.7C3520,204,3680,313,3840,336.8C4000,360,4160,298,4320,274.2C4480,251,4640,266,4800,297.7C4960,329,5120,376,5280,329C5440,282,5600,141,5760,101.8C5920,63,6080,125,6240,148.8C6400,172,6560,157,6720,125.3C6880,94,7040,47,7200,23.5C7360,0,7520,0,7680,62.7C7840,125,8000,251,8160,258.5C8320,266,8480,157,8640,117.5C8800,78,8960,110,9120,125.3C9280,141,9440,141,9600,180.2C9760,219,9920,298,10080,274.2C10240,251,10400,125,10560,101.8C10720,78,10880,157,11040,180.2C11200,204,11360,172,11440,156.7L11520,141L11520,470L11440,470C11360,470,11200,470,11040,470C10880,470,10720,470,10560,470C10400,470,10240,470,10080,470C9920,470,9760,470,9600,470C9440,470,9280,470,9120,470C8960,470,8800,470,8640,470C8480,470,8320,470,8160,470C8000,470,7840,470,7680,470C7520,470,7360,470,7200,470C7040,470,6880,470,6720,470C6560,470,6400,470,6240,470C6080,470,5920,470,5760,470C5600,470,5440,470,5280,470C5120,470,4960,470,4800,470C4640,470,4480,470,4320,470C4160,470,4000,470,3840,470C3680,470,3520,470,3360,470C3200,470,3040,470,2880,470C2720,470,2560,470,2400,470C2240,470,2080,470,1920,470C1760,470,1600,470,1440,470C1280,470,1120,470,960,470C800,470,640,470,480,470C320,470,160,470,80,470L0,470Z"/></svg>